<svg width="800" height="24" viewBox="0 0 800 24" fill="none" xmlns="http://www.w3.org/2000/svg">
<g clip-path="url(#clip0)">
<path d="M418 21C417.448 21 417 21.4477 417 22C417 22.5523 417.448 23 418 23L418 21ZM1140 21L418 21L418 23L1140 23L1140 21Z" fill="#91DC3E"/>
<path d="M404.219 21.3753C403.874 21.8065 403.944 22.4358 404.375 22.7808C404.807 23.1258 405.436 23.0559 405.781 22.6246L404.219 21.3753ZM411.799 13.5012L412.58 14.1259L411.799 13.5012ZM1140 11L414.922 10.9999L414.922 12.9999L1140 13L1140 11ZM411.018 12.8765L404.219 21.3753L405.781 22.6246L412.58 14.1259L411.018 12.8765ZM414.922 10.9999C413.404 10.9999 411.967 11.6904 411.018 12.8765L412.58 14.1259C413.149 13.4142 414.011 12.9999 414.922 12.9999L414.922 10.9999Z" fill="#F59B29"/>
<path d="M0 22H390.078C391.293 22 392.442 21.4476 393.201 20.4988L400 12L406.799 3.50122C407.558 2.55236 408.707 2 409.922 2L1140 2" stroke="#F860C8" stroke-width="2"/>
<path d="M395.781 2.6247C396.126 2.19343 396.056 1.56414 395.625 1.21913C395.193 0.874122 394.564 0.944043 394.219 1.3753L395.781 2.6247ZM388.201 10.4988L388.982 11.1235L388.201 10.4988ZM0 13H385.078V11H0V13ZM388.982 11.1235L395.781 2.6247L394.219 1.3753L387.42 9.87408L388.982 11.1235ZM385.078 13C386.596 13 388.033 12.3096 388.982 11.1235L387.42 9.87408C386.851 10.5857 385.989 11 385.078 11V13Z" fill="#91DC3E"/>
<path d="M382 3C382.552 3 383 2.55228 383 2C383 1.44772 382.552 1 382 1V3ZM0 3H382V1H0V3Z" fill="#F59B29"/>
</g>
<defs>
<clipPath id="clip0">
<rect width="800" height="24" fill="white"/>
</clipPath>
</defs>
</svg>
