<svg id="Layer_1" data-name="Layer 1" xmlns="http://www.w3.org/2000/svg" xmlns:xlink="http://www.w3.org/1999/xlink" viewBox="0 0 1920 606.32"><defs><style>.cls-1{fill:none;}.cls-2{opacity:0.12;}.cls-3{clip-path:url(#clip-path);}.cls-4{clip-path:url(#clip-path-2);}.cls-5{fill:#5f6070;}.cls-6{fill:#37384c;}.cls-7{fill:#6f707e;}.cls-8{fill:#7f808d;}.cls-9{fill:#4f5061;}.cls-10{fill:#bfbfc6;}.cls-11{fill:#8f909b;}.cls-12{fill:#9f9fa9;}.cls-13{fill:#3f4053;}.cls-14{fill:#afafb7;}.cls-15{fill:#cfcfd4;}.cls-16{opacity:0.1;}.cls-17{fill:#dfdfe2;}</style><clipPath id="clip-path"><rect class="cls-1" x="719.12" y="-23.68" width="1200.88" height="630"/></clipPath><clipPath id="clip-path-2"><rect class="cls-1" x="719.37" y="-23.42" width="1200.38" height="629.47"/></clipPath></defs><g id="Vector_Smart_Object" data-name="Vector Smart Object" class="cls-2"><g class="cls-3"><g class="cls-4"><path class="cls-5" d="M993.81,606.06v-.7h1.05l194.14-46s.59.22,1.7.6a2.58,2.58,0,0,0,.39.14l.53.19,1.35.48h0l.67.24.35.12h0l.84.29a4.24,4.24,0,0,0,.5.18l.36.13,0,0a5.25,5.25,0,0,1,.63.22l.62.22c.21.07.43.14.65.23l1.32.46,0,0c.23.07.47.16.71.25l1.42.51c30.58,10.87,108.86,38.67,117.65,41.66v.7Z"/><path class="cls-6" d="M1189,559.39l99-152.06h0l.2,1.29c0,.29.11.65.17,1l31,195.64c-11.44-3.93-88-31-118.19-41.61l-1.42-.51c-.24-.09-.48-.18-.71-.25l0,0-1.32-.46c-.22-.09-.44-.16-.65-.23l-.62-.22a5.25,5.25,0,0,0-.63-.22l0,0-.36-.13a4.24,4.24,0,0,1-.5-.18l-.84-.29h0l-.35-.12-.67-.24h0l-1.35-.48-.53-.19a3.54,3.54,0,0,1-.39-.14l-1.7-.59"/><path class="cls-6" d="M1190.7,560a3.54,3.54,0,0,0,.39.14,2.58,2.58,0,0,1-.39-.14"/><path class="cls-6" d="M1201.17,563.7c30.15,10.64,106.75,37.68,118.19,41.61v.05h-.55c-8.79-3-87.07-30.79-117.65-41.66"/><path class="cls-7" d="M1288,407.33v0h0c.68.58,32,23.41,32,23.41l0,.09,90.17,31.88-23.45,142.9-.09.07-.09-.19.09-.07-94.55-189.8-.69-1.38-.93-1.87-1-2.1-.64-1.3h0l-.8-1.61Z"/><path class="cls-8" d="M1288.21,408.63l-.2-1.29.8,1.61h0l.64,1.3,1,2.1.93,1.87.69,1.38,94.46,189.87-.09.06H1320c.25,0-7.87-50.31-16-100.24-5.38-33.12-10.78-66.06-13.73-84.05-.1-.61-.19-1.2-.29-1.78l-.11-.67,0-.18-.26-1.61-.39-2.36c-.08-.52-.16-1-.23-1.45l-.08-.52-.16-1-.08-.45a.17.17,0,0,0,0-.07l-.18-1.13c0-.13,0-.27-.07-.4-.06-.38-.12-.74-.17-1"/><polygon class="cls-9" points="1288.02 407.31 1288.02 407.3 1499.18 350.51 1410.21 462.69 1288.02 407.31"/><path class="cls-7" d="M1288,407.32l122.19,55.37L1320,430.81l0-.09s-31.3-22.83-32-23.4"/><path class="cls-8" d="M1290.27,421.24l-.29-1.78c.1.58.19,1.17.29,1.78"/><path class="cls-8" d="M1320,605.53l-29.73-184.29c3,18,8.35,50.94,13.73,84.05,8.13,49.93,16.25,100.24,16,100.24"/><polygon class="cls-7" points="1386.58 605.47 1292.12 415.6 1386.67 605.4 1386.58 605.47"/><polygon class="cls-5" points="1386.72 606.06 1386.72 605.8 1482.97 605.8 1483.18 605.8 1619.88 605.8 1620.12 605.8 1763.57 605.8 1763.61 605.76 1763.63 605.8 1832.54 522.45 1919.75 605.57 1919.75 606.06 1386.72 606.06"/><polygon class="cls-6" points="1386.72 605.8 1386.76 605.59 1544.16 480.51 1482.97 605.8 1386.72 605.8"/><polygon class="cls-10" points="1386.76 605.59 1410.21 462.69 1544.16 480.51 1386.76 605.59"/><polygon class="cls-11" points="1410.21 462.69 1499.18 350.51 1544.16 480.51 1410.21 462.69"/><polygon class="cls-5" points="1482.97 605.8 1544.16 480.51 1620.01 605.61 1619.88 605.8 1483.18 605.8 1482.97 605.8"/><polygon class="cls-12" points="1544.16 480.51 1499.18 350.51 1648.11 430.72 1544.16 480.51"/><polygon class="cls-10" points="1499.18 350.51 1538.16 221.03 1696.09 320.11 1499.18 350.51"/><polygon class="cls-9" points="1499.18 350.51 1696.09 320.11 1648.11 430.72 1499.18 350.51"/><polygon class="cls-12" points="1538.16 221.03 1672.93 239.75 1674.1 239.91 1696.09 320.11 1538.16 221.03"/><polygon class="cls-9" points="1620.01 605.61 1544.16 480.51 1696.09 494.66 1620.01 605.61"/><polygon class="cls-13" points="1544.16 480.51 1648.11 430.72 1696.09 494.66 1544.16 480.51"/><polygon class="cls-14" points="1620.12 605.8 1620.01 605.61 1696.09 494.66 1763.61 605.76 1763.57 605.8 1620.12 605.8"/><polygon class="cls-7" points="1696.09 494.66 1648.11 430.71 1696.09 320.11 1696.09 494.66"/><polygon class="cls-11" points="1696.09 320.11 1674.1 239.91 1780.05 160.23 1780.06 160.23 1696.09 320.11"/><path class="cls-14" d="M1696.09,494.66V320.11l139,74.43-.14.29c-4.83-2.27-138.81,99.83-138.81,99.83"/><polygon class="cls-6" points="1763.61 605.76 1696.09 494.66 1832.54 522.45 1763.63 605.79 1763.61 605.76"/><polygon class="cls-9" points="1696.09 320.11 1780.06 160.23 1919.5 268.73 1696.09 320.11"/><path class="cls-11" d="M1832.54,522.45l-136.45-27.79s134-102.1,138.81-99.83a.25.25,0,0,1,.14.24v124.3Z"/><polygon class="cls-7" points="1696.09 320.11 1919.5 268.73 1919.75 268.73 1919.75 268.87 1835.04 394.54 1696.09 320.11"/><polygon class="cls-11" points="1780.06 160.23 1919.5 18.73 1919.5 143.61 1780.06 160.23"/><polygon class="cls-15" points="1780.06 160.23 1919.5 143.61 1919.5 18.73 1919.75 18.73 1919.75 268.73 1919.5 268.73 1780.06 160.23"/><polygon class="cls-7" points="1832.54 522.45 1835.04 519.37 1919.75 415.05 1919.75 605.57 1832.54 522.45"/><path class="cls-14" d="M1834.9,394.83l.14-.29,84.71,20.39v.12L1835,519.37V395.06a.24.24,0,0,0-.14-.23"/><polygon class="cls-6" points="1835.04 394.54 1919.75 268.87 1919.75 414.93 1835.04 394.54"/></g></g></g><g class="cls-16"><polygon class="cls-10" points="730.23 495.37 797.41 606.15 797.29 606.32 676.24 606.32 676.05 606.32 730.23 495.37"/><polygon class="cls-7" points="730.23 495.37 676.05 606.32 590.82 606.32 590.84 606.13 730.23 495.37"/><polygon class="cls-17" points="730.23 495.37 590.84 606.13 611.62 479.59 730.23 495.37"/><polygon class="cls-8" points="611.62 479.59 590.84 606.13 590.76 606.2 509.92 450.59 611.62 479.59"/><polygon class="cls-7" points="509.92 450.59 590.76 606.2 590.61 606.32 531.73 606.32 531.51 606.32 531.17 605.93 509.92 450.59"/><path class="cls-11" d="M509.92,450.59l21.25,155.34h-.11c-5.76-4.22-82.43-64.76-82.43-64.76Z"/><path class="cls-17" d="M531.06,605.93H243.55l205.08-64.76s76.67,60.54,82.43,64.76"/><polygon class="cls-14" points="509.92 450.59 448.63 541.17 337.97 487.32 509.92 450.59"/><polygon class="cls-10" points="448.63 541.17 243.55 605.93 243 605.93 337.97 487.32 448.63 541.17"/><path class="cls-15" d="M338,487.32,243,605.93h-.13L170.8,558.44C181.62,557.29,338,487.32,338,487.32"/><path class="cls-7" d="M123.76,443.68,338,487.32s-156.34,70-167.17,71.12l-.13-.09-.42,0,0,0c-1.77-3.25-46.48-114.67-46.48-114.67Z"/><polygon class="cls-15" points="337.97 487.32 123.76 443.69 217.59 373.12 218.62 373.27 337.97 487.32"/><path class="cls-11" d="M242.87,605.93H1.53l168.84-47.5a1.17,1.17,0,0,0,.43,0Z"/><polygon class="cls-11" points="198.12 302.1 217.59 373.12 123.76 443.69 123.75 443.69 198.12 302.1"/><polygon class="cls-9" points="198.12 302.1 123.75 443.69 0.27 347.6 198.12 302.1"/><path class="cls-12" d="M170.37,558.43,1.53,605.93H.71V569l169.54-10.66a.23.23,0,0,0,.12.06"/><path class="cls-9" d="M170.25,558.38.71,569v36.9H.05V569H.27l123.48-125.3s44.71,111.41,46.48,114.66l0,0"/><polygon class="cls-11" points="123.75 443.69 0.27 568.99 0.27 458.41 123.75 443.69"/><polygon class="cls-15" points="123.75 443.69 0.27 458.41 0.27 568.99 0.05 568.99 0.05 347.6 0.27 347.6 123.75 443.69"/></g></svg>